# Blender v2.83.2 OBJ File: 'SimpleSword.blend'
# www.blender.org
mtllib SimpleSword.mtl
o Icosphere
v 0.029650 0.495278 -0.332747
v 0.251404 0.330399 -0.167008
v -0.055051 0.230850 -0.169246
v -0.244453 0.491471 -0.163386
v -0.055051 0.752092 -0.157528
v 0.251404 0.652542 -0.159766
v 0.105399 0.250957 0.162139
v -0.168669 0.339986 0.164140
v -0.168669 0.628083 0.170617
v 0.105399 0.717113 0.172618
v 0.274784 0.484035 0.167378
v 0.029650 0.484035 0.167378
v -0.020136 0.341061 -0.290435
v 0.159992 0.399575 -0.289119
v 0.110207 0.244147 -0.193015
v 0.290336 0.492011 -0.187443
v 0.159992 0.588924 -0.284862
v -0.131464 0.494249 -0.286990
v -0.181250 0.338823 -0.190887
v -0.020136 0.647437 -0.283547
v -0.181250 0.645200 -0.183999
v 0.110207 0.739875 -0.181871
v 0.321107 0.393715 -0.028497
v 0.321107 0.583065 -0.024240
v 0.029650 0.182011 -0.033256
v 0.209780 0.240525 -0.031941
v -0.261808 0.393715 -0.028497
v -0.150481 0.240525 -0.031941
v -0.150481 0.736256 -0.020796
v -0.261808 0.583065 -0.024240
v 0.209780 0.736256 -0.020796
v 0.029650 0.794769 -0.019481
v 0.218261 0.347036 0.164299
v -0.042395 0.262365 0.162395
v -0.203487 0.484035 0.167378
v -0.042395 0.705704 0.172362
v 0.218261 0.621034 0.170458
v 0.074174 0.347036 0.164299
v 0.173736 0.484035 0.167378
v -0.086918 0.399366 0.165475
v -0.086918 0.568704 0.169282
v 0.074174 0.621033 0.170458
v 0.034142 0.691026 0.138333
v 0.034142 0.659524 1.539619
v 0.113084 0.675327 0.137980
v 0.113084 0.643825 1.539266
v 0.180008 0.630621 0.136975
v 0.180008 0.599119 1.538261
v 0.224725 0.563714 0.135471
v 0.224725 0.532212 1.536757
v 0.240428 0.484792 0.133697
v 0.240428 0.453290 1.534982
v 0.224725 0.405870 0.131922
v 0.224725 0.374368 1.533208
v 0.180008 0.338963 0.130418
v 0.180008 0.307461 1.531704
v 0.113084 0.294257 0.129413
v 0.113084 0.262755 1.530699
v 0.034142 0.278558 0.129060
v 0.034142 0.247056 1.530346
v -0.044800 0.294257 0.129413
v -0.044800 0.262755 1.530699
v -0.111724 0.338963 0.130418
v -0.111724 0.307461 1.531704
v -0.156441 0.405870 0.131922
v -0.156441 0.374368 1.533208
v -0.172144 0.484792 0.133697
v -0.172144 0.453290 1.534982
v -0.156441 0.563714 0.135471
v -0.156441 0.532212 1.536757
v -0.111724 0.630621 0.136975
v -0.111724 0.599119 1.538261
v -0.044800 0.675327 0.137980
v -0.044800 0.643825 1.539266
v 0.032355 0.189229 1.505372
v 0.032355 0.151760 2.035672
v -0.749696 0.453822 1.511320
v -0.825169 0.442361 2.021100
v 0.814405 0.453822 1.511320
v 0.889879 0.442361 2.021100
v 0.032355 0.718414 1.517268
v 0.032355 0.732014 2.048717
v -0.624449 0.433863 2.004235
v -0.517769 0.412009 3.039597
v -0.624449 0.451609 2.004634
v -0.517769 0.426913 3.039932
v 0.707388 0.433863 2.004235
v 0.600708 0.412009 3.039597
v 0.707388 0.451609 2.004634
v 0.600708 0.426913 3.039932
v -0.624449 0.410588 3.039565
v -0.624449 0.428334 3.039964
v 0.707388 0.428334 3.039964
v 0.707388 0.410588 3.039565
v -0.517769 0.311117 7.527544
v -0.517769 0.326021 7.527879
v 0.600708 0.326021 7.527879
v 0.600708 0.311117 7.527544
v -0.345217 0.300315 8.110340
v -0.345217 0.310621 8.110572
v 0.428157 0.310621 8.110572
v 0.428157 0.300315 8.110340
v 0.039171 0.292811 8.672105
v 0.039171 0.292872 8.672106
v 0.043769 0.292872 8.672106
v 0.043769 0.292811 8.672105
v 0.041470 0.525629 2.006298
v 0.041470 0.502354 3.041628
v 0.041470 0.359843 2.002571
v 0.041470 0.336568 3.037901
v 0.041470 0.453195 3.040523
v 0.041470 0.385727 3.039006
v 0.041470 0.352303 7.528470
v 0.041470 0.284835 7.526954
v 0.041470 0.328793 8.110980
v 0.041470 0.282143 8.109931
v 0.041470 0.292980 8.672109
v 0.041470 0.292703 8.672102
vt 0.936089 0.637778
vt 0.934874 0.639882
vt 0.937304 0.639882
vt 0.933660 0.641986
vt 0.932445 0.639882
vt 0.931230 0.641986
vt 0.916653 0.637778
vt 0.915438 0.639882
vt 0.917867 0.639882
vt 0.921512 0.637778
vt 0.920297 0.639882
vt 0.922727 0.639882
vt 0.926371 0.637778
vt 0.925156 0.639882
vt 0.927586 0.639882
vt 0.932445 0.644090
vt 0.938519 0.641986
vt 0.936089 0.641986
vt 0.937304 0.644090
vt 0.919082 0.641986
vt 0.916653 0.641986
vt 0.917867 0.644090
vt 0.923941 0.641986
vt 0.921512 0.641986
vt 0.922727 0.644090
vt 0.928800 0.641986
vt 0.926371 0.641986
vt 0.927586 0.644090
vt 0.934874 0.644090
vt 0.939733 0.644090
vt 0.920297 0.644090
vt 0.925156 0.644090
vt 0.930015 0.644090
vt 0.936089 0.646194
vt 0.933660 0.646194
vt 0.934874 0.648299
vt 0.940948 0.646194
vt 0.938519 0.646194
vt 0.939733 0.648299
vt 0.921512 0.646194
vt 0.919082 0.646194
vt 0.920297 0.648299
vt 0.926371 0.646194
vt 0.923941 0.646194
vt 0.925156 0.648299
vt 0.931230 0.646194
vt 0.928800 0.646194
vt 0.930015 0.648299
vt 0.927586 0.648299
vt 0.928800 0.650403
vt 0.922727 0.648299
vt 0.923941 0.650403
vt 0.917867 0.648299
vt 0.919082 0.650403
vt 0.916653 0.646194
vt 0.937304 0.648299
vt 0.938519 0.650403
vt 0.932445 0.648299
vt 0.933660 0.650403
vt 0.915438 0.644090
vt 0.914223 0.641986
vt 0.930015 0.639882
vt 0.931230 0.637778
vt 0.796487 0.256129
vt 0.796487 0.268241
vt 0.794973 0.268241
vt 0.794973 0.256129
vt 0.793459 0.268241
vt 0.793459 0.256129
vt 0.791945 0.268241
vt 0.791945 0.256129
vt 0.790431 0.268241
vt 0.790431 0.256129
vt 0.788917 0.268241
vt 0.788917 0.256129
vt 0.787403 0.268241
vt 0.787403 0.256129
vt 0.785889 0.268241
vt 0.785889 0.256129
vt 0.784375 0.268241
vt 0.784375 0.256129
vt 0.782861 0.268241
vt 0.782861 0.256129
vt 0.781347 0.268241
vt 0.781347 0.256129
vt 0.779833 0.268241
vt 0.779833 0.256129
vt 0.778319 0.268241
vt 0.778319 0.256129
vt 0.776805 0.268241
vt 0.776805 0.256129
vt 0.775291 0.268241
vt 0.775291 0.256129
vt 0.780544 0.255444
vt 0.778319 0.255887
vt 0.776094 0.255444
vt 0.774208 0.254184
vt 0.772948 0.252298
vt 0.772505 0.250073
vt 0.772948 0.247848
vt 0.774208 0.245962
vt 0.776094 0.244702
vt 0.778319 0.244259
vt 0.780544 0.244702
vt 0.782430 0.245962
vt 0.783690 0.247848
vt 0.784133 0.250073
vt 0.783690 0.252298
vt 0.782430 0.254184
vt 0.773777 0.268241
vt 0.773777 0.256129
vt 0.772263 0.268241
vt 0.772263 0.256129
vt 0.790431 0.255887
vt 0.792656 0.255444
vt 0.794542 0.254184
vt 0.795802 0.252298
vt 0.796245 0.250073
vt 0.795802 0.247848
vt 0.794542 0.245962
vt 0.792656 0.244702
vt 0.790431 0.244259
vt 0.788206 0.244702
vt 0.786320 0.245962
vt 0.785060 0.247848
vt 0.784617 0.250073
vt 0.785060 0.252298
vt 0.786320 0.254184
vt 0.788206 0.255444
vt 0.019408 0.834096
vt 0.030345 0.834096
vt 0.030345 0.845033
vt 0.019408 0.845033
vt 0.030345 0.855969
vt 0.019408 0.855969
vt 0.030345 0.866906
vt 0.019408 0.866906
vt 0.030345 0.877842
vt 0.019408 0.877842
vt 0.008472 0.855969
vt 0.008472 0.866906
vt 0.041281 0.855969
vt 0.041281 0.866906
vt 0.216182 0.315839
vt 0.226525 0.315839
vt 0.226525 0.326182
vt 0.216182 0.326182
vt 0.216182 0.331353
vt 0.226525 0.331353
vt 0.226525 0.336525
vt 0.216182 0.336525
vt 0.226525 0.346867
vt 0.216182 0.346867
vt 0.216182 0.352039
vt 0.226525 0.352039
vt 0.226525 0.357210
vt 0.216182 0.357210
vt 0.016636 0.746525
vt 0.021807 0.746525
vt 0.021807 0.756867
vt 0.016636 0.756867
vt 0.029164 0.536103
vt 0.029164 0.544789
vt 0.029164 0.544789
vt 0.029164 0.536103
vt 0.041664 0.756039
vt 0.041664 0.747353
vt 0.042493 0.746525
vt 0.042493 0.756867
vt 0.037321 0.747353
vt 0.032978 0.747353
vt 0.032150 0.746525
vt 0.037321 0.746525
vt 0.032978 0.756039
vt 0.032150 0.756867
vt 0.037321 0.756039
vt 0.037321 0.756867
vt 0.024821 0.544789
vt 0.020478 0.544789
vt 0.020478 0.544789
vt 0.024821 0.544789
vt 0.024821 0.544789
vt 0.020478 0.544789
vt 0.024821 0.536103
vt 0.024821 0.536103
vt 0.020478 0.536103
vt 0.020478 0.536103
vt 0.020478 0.536103
vt 0.020478 0.536103
vt 0.020478 0.544789
vt 0.029164 0.536103
vt 0.024821 0.536103
vt 0.029164 0.544789
vt 0.024821 0.536103
vt 0.029164 0.536103
vt 0.029164 0.544789
vt 0.024821 0.544789
vt 0.011464 0.746525
vt 0.011464 0.756867
vn 0.1024 -0.2938 -0.9504
vn 0.7002 -0.2531 -0.6676
vn -0.2680 -0.1735 -0.9477
vn -0.2680 0.2159 -0.9389
vn 0.1024 0.3362 -0.9362
vn 0.9050 -0.2605 -0.3363
vn 0.0247 -0.9359 -0.3515
vn -0.8897 -0.3076 -0.3374
vn -0.5746 0.7560 -0.3135
vn 0.5346 0.7851 -0.3128
vn 0.8026 -0.5802 -0.1387
vn -0.3066 -0.9405 -0.1468
vn -0.9921 0.0028 -0.1256
vn -0.3066 0.9461 -0.1044
vn 0.8026 0.5858 -0.1125
vn 0.0000 -0.0225 0.9997
vn 0.8562 0.3446 0.3851
vn 0.7747 0.5562 0.3008
vn 0.6004 0.6965 0.3930
vn -0.0713 0.9147 0.3979
vn -0.2959 0.9040 0.3086
vn -0.4851 0.7803 0.3949
vn -0.9002 0.2090 0.3820
vn -0.9576 -0.0065 0.2881
vn -0.9002 -0.2260 0.3722
vn -0.4851 -0.7972 0.3594
vn -0.2959 -0.9170 0.2676
vn -0.0713 -0.9316 0.3564
vn 0.6004 -0.7134 0.3613
vn 0.7747 -0.5692 0.2755
vn 0.8562 -0.3615 0.3692
vn 0.3005 0.9195 0.2532
vn 0.3035 0.9382 -0.1666
vn 0.0247 0.9507 -0.3091
vn -0.7869 0.5663 0.2453
vn -0.7947 0.5814 -0.1746
vn -0.8897 0.3224 -0.3232
vn -0.7869 -0.5768 0.2196
vn -0.7947 -0.5730 -0.2005
vn -0.5746 -0.7412 -0.3471
vn 0.3006 -0.9300 0.2116
vn 0.3035 -0.9297 -0.2085
vn 0.5346 -0.7702 -0.3478
vn 0.9726 -0.0052 0.2324
vn 0.9822 0.0042 -0.1876
vn 0.9050 0.2754 -0.3243
vn 0.4713 0.5978 -0.6484
vn 0.1876 0.5951 -0.7815
vn -0.0385 0.7635 -0.6447
vn -0.4089 0.6431 -0.6474
vn -0.4911 0.3746 -0.7864
vn -0.7240 0.2096 -0.6572
vn -0.7240 -0.1798 -0.6659
vn -0.4911 -0.3389 -0.8025
vn -0.4089 -0.6134 -0.6757
vn 0.7002 0.2828 -0.6555
vn 0.6071 0.0179 -0.7945
vn 0.3313 0.0212 -0.9433
vn -0.0385 -0.7337 -0.6784
vn 0.1876 -0.5593 -0.8074
vn 0.4713 -0.5681 -0.6746
vn 0.1951 0.9805 0.0220
vn 0.5556 0.8313 0.0187
vn 0.8315 0.5554 0.0125
vn 0.9808 0.1950 0.0044
vn 0.9808 -0.1950 -0.0044
vn 0.8315 -0.5554 -0.0125
vn 0.5556 -0.8313 -0.0187
vn 0.1951 -0.9805 -0.0220
vn -0.1951 -0.9805 -0.0220
vn -0.5556 -0.8313 -0.0187
vn -0.8315 -0.5554 -0.0125
vn -0.9808 -0.1950 -0.0044
vn -0.9808 0.1950 0.0044
vn -0.8315 0.5554 0.0125
vn -0.5556 0.8313 0.0187
vn -0.1951 0.9805 0.0220
vn 0.0000 0.0225 -0.9997
vn -0.3197 -0.9451 -0.0677
vn -0.3197 0.9472 -0.0251
vn 0.3197 0.9472 -0.0251
vn 0.3197 -0.9451 -0.0677
vn -1.0000 -0.0000 0.0000
vn 0.1105 0.9936 0.0223
vn 1.0000 0.0000 0.0000
vn -0.1105 -0.9936 -0.0223
vn 0.0469 -0.9989 -0.0046
vn 0.0470 -0.9986 -0.0225
vn -0.0470 0.9986 0.0225
vn 0.8253 -0.0127 0.5645
vn -0.0469 0.9981 0.0403
vn 0.9589 -0.0064 0.2838
vn -0.9589 -0.0064 0.2838
vn -0.8253 -0.0127 0.5645
vn 0.0469 -0.9987 0.0188
vn -0.0469 0.9969 0.0636
vn 0.0469 0.9969 0.0636
vn -0.0469 -0.9987 0.0188
vn -0.0001 -0.0225 0.9997
vn 0.0469 0.9981 0.0403
vn 0.0470 0.9986 0.0225
vn -0.0470 -0.9986 -0.0225
vn -0.0469 -0.9989 -0.0046
vn 0.1105 -0.9936 -0.0223
vn -0.1105 0.9936 0.0223
usemtl Material.001
s off
f 1/1/1 14/2/1 13/3/1
f 2/4/2 14/5/2 16/6/2
f 1/7/3 13/8/3 18/9/3
f 1/10/4 18/11/4 20/12/4
f 1/13/5 20/14/5 17/15/5
f 2/4/6 16/6/6 23/16/6
f 3/17/7 15/18/7 25/19/7
f 4/20/8 19/21/8 27/22/8
f 5/23/9 21/24/9 29/25/9
f 6/26/10 22/27/10 31/28/10
f 2/4/11 23/16/11 26/29/11
f 3/17/12 25/19/12 28/30/12
f 4/20/13 27/22/13 30/31/13
f 5/23/14 29/25/14 32/32/14
f 6/26/15 31/28/15 24/33/15
f 7/34/16 33/35/16 38/36/16
f 8/37/16 34/38/16 40/39/16
f 9/40/16 35/41/16 41/42/16
f 10/43/16 36/44/16 42/45/16
f 11/46/16 37/47/16 39/48/16
f 39/48/16 42/49/16 12/50/16
f 39/48/16 37/47/16 42/49/16
f 37/47/16 10/43/16 42/49/16
f 42/45/16 41/51/16 12/52/16
f 42/45/16 36/44/16 41/51/16
f 36/44/16 9/40/16 41/51/16
f 41/42/16 40/53/16 12/54/16
f 41/42/16 35/41/16 40/53/16
f 35/41/16 8/55/16 40/53/16
f 40/39/16 38/56/16 12/57/16
f 40/39/16 34/38/16 38/56/16
f 34/38/16 7/34/16 38/56/16
f 38/36/16 39/58/16 12/59/16
f 38/36/16 33/35/16 39/58/16
f 33/35/16 11/46/16 39/58/16
f 24/33/17 37/47/17 11/46/17
f 24/33/18 31/28/18 37/47/18
f 31/28/19 10/43/19 37/47/19
f 32/32/20 36/44/20 10/43/20
f 32/32/21 29/25/21 36/44/21
f 29/25/22 9/40/22 36/44/22
f 30/31/23 35/41/23 9/40/23
f 30/31/24 27/22/24 35/41/24
f 27/22/25 8/55/25 35/41/25
f 28/30/26 34/38/26 8/37/26
f 28/30/27 25/19/27 34/38/27
f 25/19/28 7/34/28 34/38/28
f 26/29/29 33/35/29 7/34/29
f 26/29/30 23/16/30 33/35/30
f 23/16/31 11/46/31 33/35/31
f 31/28/32 32/32/32 10/43/32
f 31/28/33 22/27/33 32/32/33
f 22/27/34 5/23/34 32/32/34
f 29/25/35 30/31/35 9/40/35
f 29/25/36 21/24/36 30/31/36
f 21/24/37 4/20/37 30/31/37
f 27/22/38 28/60/38 8/55/38
f 27/22/39 19/21/39 28/60/39
f 19/21/40 3/61/40 28/60/40
f 25/19/41 26/29/41 7/34/41
f 25/19/42 15/18/42 26/29/42
f 15/18/43 2/4/43 26/29/43
f 23/16/44 24/33/44 11/46/44
f 23/16/45 16/6/45 24/33/45
f 16/6/46 6/26/46 24/33/46
f 17/15/47 22/27/47 6/26/47
f 17/15/48 20/14/48 22/27/48
f 20/14/49 5/23/49 22/27/49
f 20/12/50 21/24/50 5/23/50
f 20/12/51 18/11/51 21/24/51
f 18/11/52 4/20/52 21/24/52
f 18/9/53 19/21/53 4/20/53
f 18/9/54 13/8/54 19/21/54
f 13/8/55 3/61/55 19/21/55
f 16/6/56 17/62/56 6/26/56
f 16/6/57 14/5/57 17/62/57
f 14/5/58 1/63/58 17/62/58
f 13/3/59 15/18/59 3/17/59
f 13/3/60 14/2/60 15/18/60
f 14/2/61 2/4/61 15/18/61
f 43/64/62 44/65/62 46/66/62 45/67/62
f 45/67/63 46/66/63 48/68/63 47/69/63
f 47/69/64 48/68/64 50/70/64 49/71/64
f 49/71/65 50/70/65 52/72/65 51/73/65
f 51/73/66 52/72/66 54/74/66 53/75/66
f 53/75/67 54/74/67 56/76/67 55/77/67
f 55/77/68 56/76/68 58/78/68 57/79/68
f 57/79/69 58/78/69 60/80/69 59/81/69
f 59/81/70 60/80/70 62/82/70 61/83/70
f 61/83/71 62/82/71 64/84/71 63/85/71
f 63/85/72 64/84/72 66/86/72 65/87/72
f 65/87/73 66/86/73 68/88/73 67/89/73
f 67/89/74 68/88/74 70/90/74 69/91/74
f 69/91/75 70/90/75 72/92/75 71/93/75
f 46/94/16 44/95/16 74/96/16 72/97/16 70/98/16 68/99/16 66/100/16 64/101/16 62/102/16 60/103/16 58/104/16 56/105/16 54/106/16 52/107/16 50/108/16 48/109/16
f 71/93/76 72/92/76 74/110/76 73/111/76
f 73/111/77 74/110/77 44/112/77 43/113/77
f 43/114/78 45/115/78 47/116/78 49/117/78 51/118/78 53/119/78 55/120/78 57/121/78 59/122/78 61/123/78 63/124/78 65/125/78 67/126/78 69/127/78 71/128/78 73/129/78
f 75/130/79 76/131/79 78/132/79 77/133/79
f 77/133/80 78/132/80 82/134/80 81/135/80
f 81/135/81 82/134/81 80/136/81 79/137/81
f 79/137/82 80/136/82 76/138/82 75/139/82
f 77/140/78 81/135/78 79/137/78 75/141/78
f 82/134/16 78/142/16 76/143/16 80/136/16
f 83/144/83 91/145/83 92/146/83 85/147/83
f 107/148/84 108/149/84 93/150/84 89/151/84
f 89/151/85 93/150/85 94/152/85 87/153/85
f 109/154/86 110/155/86 91/156/86 83/157/86
f 107/158/78 89/159/78 87/160/78 109/161/78
f 86/162/83 84/163/83 95/164/83 96/165/83
f 84/166/16 86/167/16 92/168/16 91/169/16
f 111/170/16 90/171/16 93/172/16 108/173/16
f 90/171/16 88/174/16 94/175/16 93/172/16
f 112/176/16 84/166/16 91/169/16 110/177/16
f 114/178/87 98/179/87 102/180/87 116/181/87
f 112/182/88 88/183/88 98/179/88 114/178/88
f 111/184/89 86/162/89 96/165/89 113/185/89
f 88/183/85 90/186/85 97/187/85 98/179/85
f 102/180/90 101/188/90 105/189/90 106/190/90
f 113/185/91 96/165/91 100/191/91 115/192/91
f 98/179/92 97/187/92 101/188/92 102/180/92
f 96/165/93 95/164/93 99/193/93 100/191/93
f 117/194/16 104/195/16 103/196/16 118/197/16
f 100/191/94 99/193/94 103/196/94 104/195/94
f 116/181/95 102/180/95 106/190/95 118/197/95
f 115/192/96 100/191/96 104/195/96 117/194/96
f 101/188/97 115/192/97 117/194/97 105/189/97
f 99/193/98 116/181/98 118/197/98 103/196/98
f 105/189/99 117/194/99 118/197/99 106/190/99
f 97/187/100 113/185/100 115/192/100 101/188/100
f 90/186/101 111/184/101 113/185/101 97/187/101
f 84/163/102 112/182/102 114/178/102 95/164/102
f 95/164/103 114/178/103 116/181/103 99/193/103
f 88/174/16 112/176/16 110/177/16 94/175/16
f 86/167/16 111/170/16 108/173/16 92/168/16
f 85/198/78 107/158/78 109/161/78 83/199/78
f 87/153/104 94/152/104 110/155/104 109/154/104
f 85/147/105 92/146/105 108/149/105 107/148/105
